<svg  width="100%" height="100%" viewBox="0 0 1964 950" fill="none" xmlns="http://www.w3.org/2000/svg">
<path fill-rule="evenodd" clip-rule="evenodd" d="M715.145 0H0V950H1664V946.961C1662.27 946.987 1660.49 947 1658.66 947C1550.22 947 1481.77 901.555 1419.78 853.116C1378.98 821.227 1349.85 840.667 1318.87 861.345C1291.03 879.927 1261.69 899.509 1221.03 883.731C1184.91 869.715 1171.82 852.09 1158.3 833.892C1139.67 808.808 1120.22 782.634 1038.55 763.315C897.621 729.979 859.031 617.047 906.194 526.565C928.622 483.537 901.74 490.509 862.604 500.658C819.442 511.852 761.373 526.911 738.11 483.024C718.102 445.277 736.835 418.19 756.575 389.647C780.595 354.915 806.105 318.029 765.115 257.159C705.375 168.446 706.91 48.756 715.145 0Z" fill="white"/>
</svg>
