<svg width="147" height="131" viewBox="0 0 147 131" fill="none" xmlns="http://www.w3.org/2000/svg">
<g clip-path="url(#clip0)">
<path d="M90.7266 88.0093C89.1418 88.0093 87.8555 89.1489 87.8555 90.5529C87.8555 91.9569 89.1418 93.0965 90.7266 93.0965C92.3113 93.0965 93.5976 91.9569 93.5976 90.5529C93.5976 89.1489 92.3113 88.0093 90.7266 88.0093Z" fill="#FA8448"/>
<path d="M132.645 0H14.3555C6.43977 0 0 5.70527 0 12.7181V90.553C0 97.5658 6.43977 103.271 14.3555 103.271H59.1445V114.972H56.2734C52.4401 114.972 48.8366 116.295 46.1237 118.698C43.4118 121.101 41.918 124.294 41.918 127.69C41.918 129.095 43.2032 130.234 44.7891 130.234H102.211C103.797 130.234 105.082 129.095 105.082 127.69C105.082 120.677 98.6423 114.972 90.7266 114.972H87.8555V103.271H132.645C140.56 103.271 147 97.5658 147 90.553V12.7181C147 5.70527 140.56 0 132.645 0ZM14.3555 5.08725H132.645C137.394 5.08725 141.258 8.51021 141.258 12.7181V77.8349H128.051V19.3315C128.051 17.9266 126.766 16.7879 125.18 16.7879H102.211C100.625 16.7879 99.3398 17.9266 99.3398 19.3315V77.8349H84.9687C84.9384 75.2038 84.861 72.6105 84.7376 70.0947C84.2352 59.7354 83.0901 52.7961 82.4946 49.7437C88.4185 45.8796 90.0357 38.7177 86.4143 33.1535L76.4631 17.8839C75.9494 17.0969 75.0017 16.612 73.9766 16.612C72.9505 16.612 72.0028 17.0969 71.4902 17.8839L61.5345 33.1545C58.1206 38.4008 59.3307 45.196 64.6938 49.2062C64.0725 52.2496 62.8186 59.4373 62.2736 70.0897C62.1446 72.6324 62.0627 75.2277 62.0313 77.8349H47.6602V39.6805C47.6602 39.2771 47.5525 38.9095 47.3764 38.5826C47.3686 38.5697 47.3641 38.5558 47.3573 38.5429L35.873 18.1939C35.3862 17.3324 34.3926 16.7879 33.3047 16.7879C32.2168 16.7879 31.2231 17.3324 30.7364 18.1939L19.252 38.5429C19.2453 38.5558 19.2408 38.5697 19.2341 38.5826C19.0546 38.9125 18.9492 39.2861 18.9492 39.6805V77.8349H5.74219V12.7181C5.74219 8.51021 9.60583 5.08725 14.3555 5.08725ZM105.082 77.8349V21.8752H122.309V26.9624H119.438C117.852 26.9624 116.566 28.1011 116.566 29.506C116.566 30.911 117.852 32.0497 119.438 32.0497H122.309V39.6805H119.438C117.852 39.6805 116.566 40.8192 116.566 42.2241C116.566 43.6291 117.852 44.7678 119.438 44.7678H122.309V52.3986H119.438C117.852 52.3986 116.566 53.5373 116.566 54.9423C116.566 56.3472 117.852 57.4859 119.438 57.4859H122.309V67.6604H119.438C117.852 67.6604 116.566 68.7991 116.566 70.204C116.566 71.609 117.852 72.7476 119.438 72.7476H122.309V77.8349H105.082ZM73.9766 52.2228C75.0197 52.2228 76.0582 52.1165 77.0743 51.9177C77.607 54.9433 78.3898 60.2968 78.853 67.6604H68.166C68.6517 60.3018 69.4715 54.8648 70.0379 51.7369C71.3097 52.0578 72.6342 52.2228 73.9766 52.2228ZM73.9766 47.1355C67.4146 47.1355 63.1831 40.8083 66.5084 35.6972L73.9766 24.2429L81.4404 35.6962C84.7533 40.7864 80.5802 47.1355 73.9766 47.1355ZM67.9025 72.7476H79.1054C79.1659 74.4189 79.2074 76.1189 79.2276 77.8349H67.7735C67.7948 76.1299 67.8386 74.4298 67.9025 72.7476ZM36.1758 77.8349V42.2241H41.918V77.8349H36.1758ZM24.6914 77.8349V42.2241H30.4336V77.8349H24.6914ZM26.4657 37.1369L33.3047 25.0189L40.1437 37.1369H26.4657ZM98.8475 125.146H48.1491C48.5708 124.086 49.2594 123.114 50.1836 122.295C51.812 120.853 53.9743 120.059 56.2734 120.059H90.7266C94.4702 120.059 97.6632 122.185 98.8475 125.146ZM82.1133 114.972H64.8867V103.271H82.1133V114.972ZM132.645 98.1839H14.3555C9.60583 98.1839 5.74219 94.7609 5.74219 90.553V82.9221H141.258V90.553C141.258 94.7609 137.394 98.1839 132.645 98.1839Z" fill="url(#paint0_linear)"/>
<path d="M79.2422 88.0093H62.0156C60.4298 88.0093 59.1445 89.1479 59.1445 90.5529C59.1445 91.9579 60.4298 93.0965 62.0156 93.0965H79.2422C80.828 93.0965 82.1133 91.9579 82.1133 90.5529C82.1133 89.1479 80.828 88.0093 79.2422 88.0093Z" fill="#FA8448"/>
</g>
<rect x="0.5" y="0.5" width="146" height="129.234" stroke="white"/>
<defs>
<linearGradient id="paint0_linear" x1="73.5" y1="0" x2="73.5" y2="130.234" gradientUnits="userSpaceOnUse">
<stop stop-color="#EB3F3F"/>
<stop offset="1" stop-color="#FA8448"/>
</linearGradient>
<clipPath id="clip0">
</clipPath>
</defs>
</svg>
