<svg width="215" height="110" viewBox="0 0 215 110" fill="none" xmlns="http://www.w3.org/2000/svg">
<path fill-rule="evenodd" clip-rule="evenodd" d="M92.4015 0H0V110H215V109.648C214.777 109.651 214.547 109.653 214.31 109.653C200.298 109.653 191.455 104.391 183.446 98.7819C178.173 95.0895 174.41 97.3404 170.407 99.7346C166.809 101.886 163.018 104.154 157.765 102.327C153.098 100.704 151.406 98.6631 149.66 96.556C147.252 93.6515 144.74 90.6208 134.188 88.3838C115.979 84.5239 110.993 71.4475 117.086 60.9706C119.984 55.9885 116.511 56.7957 111.454 57.9709C105.877 59.267 98.3746 61.0107 95.3688 55.9291C92.7836 51.5584 95.204 48.422 97.7545 45.117C100.858 41.0954 104.154 36.8244 98.858 29.7764C91.1392 19.5043 91.3375 5.64543 92.4015 0Z" fill="white"/>
</svg>
