<svg width="122" height="127" viewBox="0 0 122 127" fill="none" xmlns="http://www.w3.org/2000/svg">
<g clip-path="url(#clip0)">
<path d="M93.3406 97.3528H89.2933V105.818H52.8677V110.051H89.2933V116.4C89.2933 119.906 86.575 122.749 83.2223 122.749H38.7022C36.5333 122.746 34.5294 121.537 33.4405 119.575L29.9357 121.691C31.7498 124.96 35.0887 126.975 38.7022 126.982H83.2223C88.8081 126.975 93.3336 122.242 93.3406 116.4V97.3528Z" fill="url(#paint0_linear)"/>
<path d="M58.9386 114.284H62.9859V118.516H58.9386V114.284Z" fill="url(#paint1_linear)"/>
<path d="M71.0805 57.1418V52.9091H64.9068C63.8979 39.4038 53.6394 28.6753 40.7258 27.6202V21.1636H36.6785V27.6202C35.3149 27.7297 33.9622 27.9509 32.6312 28.2805V16.9309H65.0095V12.6982H32.6312V10.5818C32.6312 7.07556 35.3495 4.23273 38.7022 4.23273H83.2223C84.7005 4.23273 86.1283 4.79695 87.237 5.82L89.9148 2.64546C88.067 0.939344 85.6867 -0.00103253 83.2223 8.50782e-07H38.7022C33.1164 0.00723453 28.5909 4.74012 28.5839 10.5818V29.6291C19.4716 33.621 13.2614 42.6084 12.4975 52.9091H6.32385V57.1418H12.5025C13.457 70.6729 23.7402 81.4345 36.6785 82.441V88.8873H40.7258V82.441C53.6641 81.4345 63.9473 70.6729 64.9018 57.1418H71.0805ZM36.6785 74.0727V78.2083C33.8555 77.9427 31.1086 77.1129 28.5839 75.7654V71.9564C28.5839 66.1126 33.1144 61.3745 38.7022 61.3745C44.2899 61.3745 48.8204 66.1126 48.8204 71.9564V75.7654C46.2967 77.115 43.5488 77.9458 40.7258 78.2145V74.0727H36.6785ZM32.6312 50.7927C32.6312 47.2865 35.3495 44.4436 38.7022 44.4436C42.0548 44.4436 44.7731 47.2865 44.7731 50.7927C44.7731 54.299 42.0548 57.1418 38.7022 57.1418C35.3495 57.1418 32.6312 54.299 32.6312 50.7927ZM53.5416 72.3801C53.3232 72.5909 53.09 72.7603 52.8677 72.9556V71.9564C52.8627 66.4278 49.9142 61.3621 45.2207 58.818C48.4716 55.9545 49.6642 51.2712 48.2068 47.0963C46.7493 42.9204 42.952 40.1427 38.7022 40.1427C34.4523 40.1427 30.655 42.9204 29.1976 47.0963C27.7401 51.2712 28.9327 55.9545 32.1836 58.818C27.4901 61.3621 24.5416 66.4278 24.5366 71.9564V72.966C24.3123 72.7738 24.0792 72.5929 23.8628 72.3904C19.6692 68.4573 17.0557 63.0094 16.5498 57.1418H20.4894V52.9091H16.5448C17.5339 41.7362 25.9951 32.8873 36.6785 31.8529V35.9782H40.7258V31.8529C51.4092 32.8873 59.8704 41.7362 60.8595 52.9091H56.915V57.1418H60.8545C60.3486 63.0094 57.7351 68.4573 53.5416 72.3904V72.3801Z" fill="url(#paint2_linear)"/>
<path d="M115.601 38.0947C116.718 38.0947 117.624 37.1471 117.624 35.9783V10.5819C117.624 9.41319 116.718 8.46558 115.601 8.46558H71.0805C69.963 8.46558 69.0569 9.41319 69.0569 10.5819V35.9783C69.0569 37.1471 69.963 38.0947 71.0805 38.0947H115.601ZM73.1042 12.6983H113.577V33.8619H73.1042V12.6983Z" fill="url(#paint3_linear)"/>
<path d="M77.1514 16.9309H85.2459V21.1636H77.1514V16.9309Z" fill="url(#paint4_linear)"/>
<path d="M89.2933 16.9309H109.53V21.1636H89.2933V16.9309Z" fill="url(#paint5_linear)"/>
<path d="M77.1514 25.3965H109.53V29.6292H77.1514V25.3965Z" fill="url(#paint6_linear)"/>
<path d="M115.243 42.3271C113.676 42.3302 112.164 42.9317 110.993 44.0198L93.3405 60.2956V42.3271H89.2933V63.4908H89.8782L78.3658 74.115C70.8759 74.5635 65.0184 81.0407 65.0095 88.8872V92.6208C65.0174 94.7206 63.8821 96.6437 62.0818 97.5748C61.2409 98.0129 60.7992 98.9988 61.0146 99.9547C61.23 100.911 62.0462 101.586 62.9859 101.585H77.1514C84.6541 101.576 90.8475 95.4502 91.2764 87.6171L120.065 53.497C121.736 51.5149 122.142 48.6928 121.101 46.284C120.062 43.8752 117.77 42.3271 115.243 42.3271V42.3271ZM77.1514 97.3526H67.8968C68.6606 95.9038 69.0598 94.2752 69.0568 92.6208V88.8872C69.0637 83.3741 73.111 78.7869 78.3658 78.3394L87.237 87.6171C86.8101 93.1126 82.4229 97.3464 77.1514 97.3526ZM117.029 50.6975L89.2023 83.681L82.1295 76.2861L113.668 47.182C114.612 46.316 116.035 46.3646 116.924 47.2925C117.811 48.2216 117.857 49.7107 117.029 50.6975Z" fill="url(#paint7_linear)"/>
<path d="M2.27547 116.4H46.7956C47.9132 116.4 48.8193 115.452 48.8193 114.284V97.3527C48.8193 96.184 47.9132 95.2364 46.7956 95.2364H32.6301V84.6545H28.5828V95.2364H2.27547C1.15793 95.2364 0.251831 96.184 0.251831 97.3527V114.284C0.251831 115.452 1.15793 116.4 2.27547 116.4ZM4.29912 99.4691H44.772V112.167H4.29912V99.4691Z" fill="url(#paint8_linear)"/>
<path d="M8.34753 103.702H18.4658V107.935H8.34753V103.702Z" fill="url(#paint9_linear)"/>
<path d="M22.5131 103.702H40.7259V107.935H22.5131V103.702Z" fill="url(#paint10_linear)"/>
<path d="M2.27547 29.6292H22.5119C23.6295 29.6292 24.5356 28.6816 24.5356 27.5128V10.5819C24.5356 9.41319 23.6295 8.46558 22.5119 8.46558H2.27547C1.15793 8.46558 0.251831 9.41319 0.251831 10.5819V27.5128C0.251831 28.6816 1.15793 29.6292 2.27547 29.6292ZM4.29912 12.6983H20.4883V25.3965H4.29912V12.6983Z" fill="url(#paint11_linear)"/>
<path d="M8.34753 16.9309H16.4421V21.1636H8.34753V16.9309Z" fill="url(#paint12_linear)"/>
</g>
<defs>
<linearGradient id="paint0_linear" x1="61.6381" y1="97.3528" x2="61.6381" y2="126.982" gradientUnits="userSpaceOnUse">
<stop stop-color="#EB3F3F"/>
<stop offset="1" stop-color="#FA8448"/>
</linearGradient>
<linearGradient id="paint1_linear" x1="60.9622" y1="114.284" x2="60.9622" y2="118.516" gradientUnits="userSpaceOnUse">
<stop stop-color="#EB3F3F"/>
<stop offset="1" stop-color="#FA8448"/>
</linearGradient>
<linearGradient id="paint2_linear" x1="48.1193" y1="0" x2="48.1193" y2="88.8873" gradientUnits="userSpaceOnUse">
<stop stop-color="#EB3F3F"/>
<stop offset="1" stop-color="#FA8448"/>
</linearGradient>
<linearGradient id="paint3_linear" x1="93.3406" y1="8.46558" x2="93.3406" y2="38.0947" gradientUnits="userSpaceOnUse">
<stop stop-color="#EB3F3F"/>
<stop offset="1" stop-color="#FA8448"/>
</linearGradient>
<linearGradient id="paint4_linear" x1="81.1987" y1="16.9309" x2="81.1987" y2="21.1636" gradientUnits="userSpaceOnUse">
<stop stop-color="#EB3F3F"/>
<stop offset="1" stop-color="#FA8448"/>
</linearGradient>
<linearGradient id="paint5_linear" x1="99.4115" y1="16.9309" x2="99.4115" y2="21.1636" gradientUnits="userSpaceOnUse">
<stop stop-color="#EB3F3F"/>
<stop offset="1" stop-color="#FA8448"/>
</linearGradient>
<linearGradient id="paint6_linear" x1="93.3405" y1="25.3965" x2="93.3405" y2="29.6292" gradientUnits="userSpaceOnUse">
<stop stop-color="#EB3F3F"/>
<stop offset="1" stop-color="#FA8448"/>
</linearGradient>
<linearGradient id="paint7_linear" x1="91.316" y1="42.3271" x2="91.316" y2="101.585" gradientUnits="userSpaceOnUse">
<stop stop-color="#EB3F3F"/>
<stop offset="1" stop-color="#FA8448"/>
</linearGradient>
<linearGradient id="paint8_linear" x1="24.5356" y1="84.6545" x2="24.5356" y2="116.4" gradientUnits="userSpaceOnUse">
<stop stop-color="#EB3F3F"/>
<stop offset="1" stop-color="#FA8448"/>
</linearGradient>
<linearGradient id="paint9_linear" x1="13.4066" y1="103.702" x2="13.4066" y2="107.935" gradientUnits="userSpaceOnUse">
<stop stop-color="#EB3F3F"/>
<stop offset="1" stop-color="#FA8448"/>
</linearGradient>
<linearGradient id="paint10_linear" x1="31.6195" y1="103.702" x2="31.6195" y2="107.935" gradientUnits="userSpaceOnUse">
<stop stop-color="#EB3F3F"/>
<stop offset="1" stop-color="#FA8448"/>
</linearGradient>
<linearGradient id="paint11_linear" x1="12.3937" y1="8.46558" x2="12.3937" y2="29.6292" gradientUnits="userSpaceOnUse">
<stop stop-color="#EB3F3F"/>
<stop offset="1" stop-color="#FA8448"/>
</linearGradient>
<linearGradient id="paint12_linear" x1="12.3948" y1="16.9309" x2="12.3948" y2="21.1636" gradientUnits="userSpaceOnUse">
<stop stop-color="#EB3F3F"/>
<stop offset="1" stop-color="#FA8448"/>
</linearGradient>
<clipPath id="clip0">
<rect width="121.419" height="126.982" fill="white"/>
</clipPath>
</defs>
</svg>
