<svg width="162" height="128" viewBox="0 0 162 128" fill="none" xmlns="http://www.w3.org/2000/svg">
<path d="M81 102.276H7.83871C7.14572 102.276 6.48112 101.977 5.99111 101.445C5.50109 100.913 5.22581 100.191 5.22581 99.4382V8.62462C5.22581 7.87195 5.50109 7.15012 5.99111 6.6179C6.48112 6.08569 7.14572 5.78669 7.83871 5.78669H122.806C123.499 5.78669 124.164 6.08569 124.654 6.6179C125.144 7.15012 125.419 7.87195 125.419 8.62462V73.8969C125.419 74.6496 125.695 75.3714 126.185 75.9036C126.675 76.4358 127.339 76.7348 128.032 76.7348C128.725 76.7348 129.39 76.4358 129.88 75.9036C130.37 75.3714 130.645 74.6496 130.645 73.8969V8.62462C130.645 6.36662 129.819 4.20111 128.349 2.60447C126.879 1.00782 124.885 0.11084 122.806 0.11084H7.83871C5.75975 0.11084 3.76595 1.00782 2.2959 2.60447C0.825862 4.20111 0 6.36662 0 8.62462V99.4382C0 101.696 0.825862 103.862 2.2959 105.458C3.76595 107.055 5.75975 107.952 7.83871 107.952H81C81.693 107.952 82.3576 107.653 82.8476 107.121C83.3376 106.589 83.6129 105.867 83.6129 105.114C83.6129 104.361 83.3376 103.64 82.8476 103.107C82.3576 102.575 81.693 102.276 81 102.276Z" fill="url(#paint0_linear)"/>
<path d="M58.8139 67.8547C59.2173 68.1021 59.6741 68.2286 60.1374 68.2211C60.6007 68.2136 61.0538 68.0725 61.4503 67.8122L78.7504 56.4605C79.1355 56.2078 79.454 55.8515 79.6752 55.4259C79.8963 55.0003 80.0125 54.5199 80.0125 54.0312C80.0125 53.5425 79.8963 53.0621 79.6752 52.6366C79.454 52.211 79.1355 51.8546 78.7504 51.6019L61.4503 40.2503C61.0539 39.9895 60.6007 39.848 60.1374 39.8402C59.674 39.8324 59.217 39.9586 58.8134 40.2058C58.4097 40.453 58.0738 40.8124 57.8402 41.2471C57.6066 41.6818 57.4836 42.1762 57.4839 42.6795V65.3829C57.484 65.886 57.6072 66.38 57.8409 66.8143C58.0746 67.2487 58.4104 67.6077 58.8139 67.8547ZM62.7097 47.7083L72.3435 54.0312L62.7097 60.3541V47.7083Z" fill="url(#paint1_linear)"/>
<path d="M65.3225 79.5725C69.9736 79.5725 74.5201 78.0745 78.3874 75.268C82.2546 72.4615 85.2687 68.4725 87.0486 63.8054C88.8284 59.1383 89.2941 54.0028 88.3868 49.0483C87.4794 44.0937 85.2397 39.5427 81.9509 35.9707C78.6621 32.3986 74.472 29.966 69.9103 28.9805C65.3486 27.995 60.6203 28.5008 56.3233 30.434C52.0263 32.3671 48.3536 35.6409 45.7696 39.8411C43.1856 44.0414 41.8064 48.9795 41.8064 54.0311C41.8133 60.8028 44.2931 67.295 48.7017 72.0833C53.1104 76.8716 59.0878 79.565 65.3225 79.5725ZM65.3225 34.1656C68.94 34.1656 72.4762 35.3307 75.4841 37.5136C78.4919 39.6964 80.8362 42.799 82.2205 46.4289C83.6049 50.0589 83.9671 54.0532 83.2614 57.9067C82.5556 61.7602 80.8136 65.2999 78.2557 68.0782C75.6978 70.8564 72.4387 72.7484 68.8908 73.5149C65.3428 74.2815 61.6652 73.888 58.3231 72.3845C54.981 70.8809 52.1244 68.3347 50.1147 65.0678C48.1049 61.801 47.0322 57.9602 47.0322 54.0311C47.0377 48.7643 48.9665 43.7149 52.3954 39.9907C55.8243 36.2665 60.4733 34.1716 65.3225 34.1656V34.1656Z" fill="url(#paint2_linear)"/>
<path d="M13.0646 90.9248C12.3716 90.9248 11.707 91.2238 11.217 91.756C10.7269 92.2882 10.4517 93.01 10.4517 93.7627C10.4517 94.5154 10.7269 95.2372 11.217 95.7694C11.707 96.3016 12.3716 96.6006 13.0646 96.6006H33.9678C34.6608 96.6006 35.3254 96.3016 35.8154 95.7694C36.3054 95.2372 36.5807 94.5154 36.5807 93.7627C36.5807 93.01 36.3054 92.2882 35.8154 91.756C35.3254 91.2238 34.6608 90.9248 33.9678 90.9248H13.0646Z" fill="url(#paint3_linear)"/>
<path d="M41.8065 90.9248C41.1135 90.9248 40.4489 91.2238 39.9589 91.756C39.4689 92.2882 39.1936 93.01 39.1936 93.7627C39.1936 94.5154 39.4689 95.2372 39.9589 95.7694C40.4489 96.3016 41.1135 96.6006 41.8065 96.6006H44.4194C45.1124 96.6006 45.777 96.3016 46.267 95.7694C46.7571 95.2372 47.0323 94.5154 47.0323 93.7627C47.0323 93.01 46.7571 92.2882 46.267 91.756C45.777 91.2238 45.1124 90.9248 44.4194 90.9248H41.8065Z" fill="url(#paint4_linear)"/>
<path d="M128.032 85.2486V88.0865H91.4515C90.7585 88.0865 90.0939 88.3855 89.6039 88.9177C89.1139 89.4499 88.8386 90.1718 88.8386 90.9244C88.8386 91.6771 89.1139 92.3989 89.6039 92.9312C90.0939 93.4634 90.7585 93.7624 91.4515 93.7624H128.032V96.6003C128.032 97.353 128.307 98.0748 128.797 98.607C129.287 99.1392 129.952 99.4382 130.645 99.4382H138.484C139.177 99.4382 139.841 99.1392 140.331 98.607C140.821 98.0748 141.097 97.353 141.097 96.6003V93.7624H159.387C160.08 93.7624 160.745 93.4634 161.235 92.9312C161.725 92.3989 162 91.6771 162 90.9244C162 90.1718 161.725 89.4499 161.235 88.9177C160.745 88.3855 160.08 88.0865 159.387 88.0865H141.097V85.2486C141.097 84.4959 140.821 83.7741 140.331 83.2419C139.841 82.7096 139.177 82.4106 138.484 82.4106H130.645C129.952 82.4106 129.287 82.7096 128.797 83.2419C128.307 83.7741 128.032 84.4959 128.032 85.2486ZM133.258 88.0865H135.871V93.7624H133.258V88.0865Z" fill="url(#paint5_linear)"/>
<path d="M159.387 116.466H141.097V113.628C141.097 112.875 140.821 112.153 140.331 111.621C139.841 111.089 139.177 110.79 138.484 110.79H130.645C129.952 110.79 129.287 111.089 128.797 111.621C128.307 112.153 128.032 112.875 128.032 113.628V116.466H91.4515C90.7585 116.466 90.0939 116.765 89.6039 117.297C89.1139 117.829 88.8386 118.551 88.8386 119.304C88.8386 120.056 89.1139 120.778 89.6039 121.31C90.0939 121.843 90.7585 122.142 91.4515 122.142H128.032V124.98C128.032 125.732 128.307 126.454 128.797 126.986C129.287 127.519 129.952 127.818 130.645 127.818H138.484C139.177 127.818 139.841 127.519 140.331 126.986C140.821 126.454 141.097 125.732 141.097 124.98V122.142H159.387C160.08 122.142 160.745 121.843 161.235 121.31C161.725 120.778 162 120.056 162 119.304C162 118.551 161.725 117.829 161.235 117.297C160.745 116.765 160.08 116.466 159.387 116.466ZM135.871 122.142H133.258V116.466H135.871V122.142Z" fill="url(#paint6_linear)"/>
<path d="M112.355 113.628H120.193C120.886 113.628 121.551 113.329 122.041 112.797C122.531 112.265 122.806 111.543 122.806 110.79V107.952H146.322C147.015 107.952 147.68 107.653 148.17 107.121C148.66 106.589 148.935 105.867 148.935 105.114C148.935 104.362 148.66 103.64 148.17 103.108C147.68 102.575 147.015 102.276 146.322 102.276H122.806V99.4385C122.806 98.6858 122.531 97.964 122.041 97.4318C121.551 96.8996 120.886 96.6006 120.193 96.6006H112.355C111.662 96.6006 110.997 96.8996 110.507 97.4318C110.017 97.964 109.742 98.6858 109.742 99.4385V102.276H91.4515C90.7585 102.276 90.0939 102.575 89.6039 103.108C89.1139 103.64 88.8386 104.362 88.8386 105.114C88.8386 105.867 89.1139 106.589 89.6039 107.121C90.0939 107.653 90.7585 107.952 91.4515 107.952H109.742V110.79C109.742 111.543 110.017 112.265 110.507 112.797C110.997 113.329 111.662 113.628 112.355 113.628ZM114.968 102.276H117.581V107.952H114.968V102.276Z" fill="url(#paint7_linear)"/>
<path d="M159.387 102.276H154.161C153.468 102.276 152.804 102.575 152.314 103.108C151.824 103.64 151.548 104.362 151.548 105.114C151.548 105.867 151.824 106.589 152.314 107.121C152.804 107.653 153.468 107.952 154.161 107.952H159.387C160.08 107.952 160.745 107.653 161.235 107.121C161.725 106.589 162 105.867 162 105.114C162 104.362 161.725 103.64 161.235 103.108C160.745 102.575 160.08 102.276 159.387 102.276Z" fill="url(#paint8_linear)"/>
<defs>
<linearGradient id="paint0_linear" x1="65.3226" y1="0.11084" x2="65.3226" y2="107.952" gradientUnits="userSpaceOnUse">
<stop stop-color="#EB3F3F"/>
<stop offset="1" stop-color="#FA8448"/>
</linearGradient>
<linearGradient id="paint1_linear" x1="68.7482" y1="39.8398" x2="68.7482" y2="68.2214" gradientUnits="userSpaceOnUse">
<stop stop-color="#EB3F3F"/>
<stop offset="1" stop-color="#FA8448"/>
</linearGradient>
<linearGradient id="paint2_linear" x1="65.3225" y1="28.4897" x2="65.3225" y2="79.5725" gradientUnits="userSpaceOnUse">
<stop stop-color="#EB3F3F"/>
<stop offset="1" stop-color="#FA8448"/>
</linearGradient>
<linearGradient id="paint3_linear" x1="23.5162" y1="90.9248" x2="23.5162" y2="96.6006" gradientUnits="userSpaceOnUse">
<stop stop-color="#EB3F3F"/>
<stop offset="1" stop-color="#FA8448"/>
</linearGradient>
<linearGradient id="paint4_linear" x1="43.113" y1="90.9248" x2="43.113" y2="96.6006" gradientUnits="userSpaceOnUse">
<stop stop-color="#EB3F3F"/>
<stop offset="1" stop-color="#FA8448"/>
</linearGradient>
<linearGradient id="paint5_linear" x1="125.419" y1="82.4106" x2="125.419" y2="99.4382" gradientUnits="userSpaceOnUse">
<stop stop-color="#EB3F3F"/>
<stop offset="1" stop-color="#FA8448"/>
</linearGradient>
<linearGradient id="paint6_linear" x1="125.419" y1="110.79" x2="125.419" y2="127.818" gradientUnits="userSpaceOnUse">
<stop stop-color="#EB3F3F"/>
<stop offset="1" stop-color="#FA8448"/>
</linearGradient>
<linearGradient id="paint7_linear" x1="118.887" y1="96.6006" x2="118.887" y2="113.628" gradientUnits="userSpaceOnUse">
<stop stop-color="#EB3F3F"/>
<stop offset="1" stop-color="#FA8448"/>
</linearGradient>
<linearGradient id="paint8_linear" x1="156.774" y1="102.276" x2="156.774" y2="107.952" gradientUnits="userSpaceOnUse">
<stop stop-color="#EB3F3F"/>
<stop offset="1" stop-color="#FA8448"/>
</linearGradient>
</defs>
</svg>
